M48
INCH,LZ
;FILE_FORMAT=2:4
;TYPE=PLATED
;Layer: Drill PTH
;EasyEDA v6.4.14, 2021-01-21T15:54:09+01:00
;9ce7f4978f28408badebbbb5726e7537,3bf3a0918b454840bcd8ed9ba4aead62,10
;Gerber Generator version 0.2
;Holesize 1 = 0.0120 inch
T01C0.0120
;Holesize 2 = 0.0250 inch
T02C0.0250
;Holesize 3 = 0.0350 inch
T03C0.0350
%
G05
G90
T01
X006500Y007500
X006500Y002500
X007500Y008500
X007500Y004500
T02
X019750Y005500
X019250Y005500
X018750Y005500
X018250Y005500
T03
X016500Y006500
X018500Y007500
X021550Y007500
X019500Y006500
X012500Y008500
X013500Y008500
X014500Y008500
X015500Y008500
X016500Y008500
X017500Y008500
X018500Y008500
X019500Y008500
X020500Y008500
X021500Y008500
X022500Y008500
X023500Y008500
X012500Y002500
X013500Y002500
X014500Y002500
X015500Y002500
X016500Y002500
X017500Y002500
X018500Y002500
X019500Y002500
X020500Y002500
X021500Y002500
X022500Y002500
X023500Y002500
X003500Y007500
X003500Y006500
X003500Y005500
X003500Y004500
X003500Y003500
X005500Y005500
X005500Y006500
X005500Y007500
X005500Y008500
X005500Y001500
X005500Y002500
X019000Y003500
X020000Y003500
M30
