G04 Layer: TopSilkLayer*
G04 EasyEDA v6.4.14, 2021-01-21T15:54:09+01:00*
G04 9ce7f4978f28408badebbbb5726e7537,3bf3a0918b454840bcd8ed9ba4aead62,10*
G04 Gerber Generator version 0.2*
G04 Scale: 100 percent, Rotated: No, Reflected: No *
G04 Dimensions in inches *
G04 leading zeros omitted , absolute positions ,3 integer and 6 decimal *
%FSLAX36Y36*%
%MOIN*%

%ADD10C,0.0100*%
%ADD14C,0.0080*%
%ADD15C,0.0080*%
%ADD16C,0.0079*%

%LPD*%
D10*
X2400000Y900000D02*
G01*
X2400000Y800000D01*
X1200000Y900000D02*
G01*
X1200000Y800000D01*
X1200000Y900000D02*
G01*
X2400000Y900000D01*
X1200000Y800000D02*
G01*
X2400000Y800000D01*
X2400000Y300000D02*
G01*
X2400000Y200000D01*
X1200000Y300000D02*
G01*
X1200000Y200000D01*
X1200000Y300000D02*
G01*
X2400000Y300000D01*
X1200000Y200000D02*
G01*
X2400000Y200000D01*
D14*
X300000Y375000D02*
G01*
X300000Y300000D01*
X400000Y300000D01*
X400000Y800000D01*
X300000Y800000D01*
D15*
X300000Y800000D02*
G01*
X300000Y375000D01*
D14*
X500000Y900000D02*
G01*
X600000Y900000D01*
X600000Y500000D01*
X500000Y500000D01*
X500000Y575000D01*
D15*
X500000Y900000D02*
G01*
X500000Y575000D01*
D14*
X500000Y300000D02*
G01*
X600000Y300000D01*
X600000Y100000D01*
X500000Y100000D01*
X500000Y175000D01*
D15*
X500000Y300000D02*
G01*
X500000Y175000D01*
D14*
X2050000Y400000D02*
G01*
X2050000Y300000D01*
X1850000Y300000D01*
X1850000Y400000D01*
X1925000Y400000D01*
D15*
X2050000Y400000D02*
G01*
X1925000Y400000D01*
D16*
X1800000Y609050D02*
G01*
X2000000Y609050D01*
X2000000Y490940D01*
X1800000Y490940D01*
X1800000Y609050D01*
M02*
