G04 Layer: BottomSolderMaskLayer*
G04 EasyEDA v6.4.14, 2021-01-21T15:54:09+01:00*
G04 9ce7f4978f28408badebbbb5726e7537,3bf3a0918b454840bcd8ed9ba4aead62,10*
G04 Gerber Generator version 0.2*
G04 Scale: 100 percent, Rotated: No, Reflected: No *
G04 Dimensions in inches *
G04 leading zeros omitted , absolute positions ,3 integer and 6 decimal *
%FSLAX36Y36*%
%MOIN*%

%ADD17C,0.0730*%
%ADD18C,0.0470*%

%LPD*%
D17*
G01*
X1650000Y650000D03*
G01*
X1850000Y750000D03*
G01*
X2155000Y750000D03*
G01*
X1950000Y650000D03*
G01*
X1250000Y850000D03*
G01*
X1350000Y850000D03*
G01*
X1450000Y850000D03*
G01*
X1550000Y850000D03*
G01*
X1650000Y850000D03*
G01*
X1750000Y850000D03*
G01*
X1850000Y850000D03*
G01*
X1950000Y850000D03*
G01*
X2050000Y850000D03*
G01*
X2150000Y850000D03*
G01*
X2250000Y850000D03*
G01*
X2350000Y850000D03*
G01*
X1250000Y250000D03*
G01*
X1350000Y250000D03*
G01*
X1450000Y250000D03*
G01*
X1550000Y250000D03*
G01*
X1650000Y250000D03*
G01*
X1750000Y250000D03*
G01*
X1850000Y250000D03*
G01*
X1950000Y250000D03*
G01*
X2050000Y250000D03*
G01*
X2150000Y250000D03*
G01*
X2250000Y250000D03*
G01*
X2350000Y250000D03*
G01*
X350000Y750000D03*
G01*
X350000Y650000D03*
G01*
X350000Y550000D03*
G01*
X350000Y450000D03*
G01*
X350000Y350000D03*
G01*
X550000Y550000D03*
G01*
X550000Y650000D03*
G01*
X550000Y750000D03*
G01*
X550000Y850000D03*
G01*
X550000Y150000D03*
G01*
X550000Y250000D03*
G01*
X1900000Y350000D03*
G01*
X2000000Y350000D03*
D18*
G01*
X1975000Y550000D03*
G01*
X1925000Y550000D03*
G01*
X1875000Y550000D03*
G01*
X1825000Y550000D03*
M02*
